<?xml version="1.0" encoding="UTF-8"?>
<svg xmlns="http://www.w3.org/2000/svg" xmlns:xlink="http://www.w3.org/1999/xlink" width="700" height="700" data-extent="0 0 990 1000" data-x-axis-label="Bins" data-y-axis-label="Capacity" fill="none" stroke="black" stroke-width="1" font-size="x-small" font-family="sans-serif" font-weight="300">
 <g id="b" class="mmsvg-plot" name="Bins" fill="gray" stroke="black" stroke-width="0.05" color="gray">
<rect x="0" y="0" width="33" height="1000"/>
<rect x="33" y="0" width="33" height="1000"/>
<rect x="66" y="0" width="33" height="1000"/>
<rect x="99" y="0" width="33" height="1000"/>
<rect x="132" y="0" width="33" height="1000"/>
<rect x="165" y="0" width="33" height="1000"/>
<rect x="198" y="0" width="33" height="1000"/>
<rect x="231" y="0" width="33" height="1000"/>
<rect x="264" y="0" width="33" height="1000"/>
<rect x="297" y="0" width="33" height="1000"/>
<rect x="330" y="0" width="33" height="1000"/>
<rect x="363" y="0" width="33" height="1000"/>
<rect x="396" y="0" width="33" height="1000"/>
<rect x="429" y="0" width="33" height="1000"/>
<rect x="462" y="0" width="33" height="1000"/>
<rect x="495" y="0" width="33" height="1000"/>
<rect x="528" y="0" width="33" height="1000"/>
<rect x="561" y="0" width="33" height="1000"/>
<rect x="594" y="0" width="33" height="1000"/>
<rect x="627" y="0" width="33" height="1000"/>
<rect x="660" y="0" width="33" height="1000"/>
<rect x="693" y="0" width="33" height="1000"/>
<rect x="726" y="0" width="33" height="1000"/>
<rect x="759" y="0" width="33" height="1000"/>
<rect x="792" y="0" width="33" height="1000"/>
<rect x="825" y="0" width="33" height="1000"/>
<rect x="858" y="0" width="33" height="1000"/>
<rect x="891" y="0" width="33" height="1000"/>
<rect x="924" y="0" width="33" height="1000"/>
<rect x="957" y="0" width="33" height="1000"/>
<rect x="990" y="0" width="33" height="1000"/>
</g>
 <g id="i" class="mmsvg-plot" name="Items" fill="lime" stroke="black" stroke-width="0.05" color="lime">
<rect x="0" y="883" width="33" height="117"/>
<rect x="0" y="750" width="33" height="133"/>
<rect x="0" y="594" width="33" height="156"/>
<rect x="0" y="464" width="33" height="130"/>
<rect x="0" y="326" width="33" height="138"/>
<rect x="0" y="246" width="33" height="80"/>
<rect x="33" y="490" width="33" height="510"/>
<rect x="33" y="297" width="33" height="193"/>
<rect x="33" y="254" width="33" height="43"/>
<rect x="33" y="52" width="33" height="202"/>
<rect x="66" y="754" width="33" height="246"/>
<rect x="66" y="214" width="33" height="540"/>
<rect x="66" y="60" width="33" height="154"/>
<rect x="99" y="974" width="33" height="26"/>
<rect x="99" y="780" width="33" height="194"/>
<rect x="99" y="636" width="33" height="144"/>
<rect x="99" y="596" width="33" height="40"/>
<rect x="99" y="523" width="33" height="73"/>
<rect x="99" y="326" width="33" height="197"/>
<rect x="99" y="56" width="33" height="270"/>
<rect x="99" y="23" width="33" height="33"/>
<rect x="132" y="502" width="33" height="498"/>
<rect x="132" y="372" width="33" height="130"/>
<rect x="132" y="240" width="33" height="132"/>
<rect x="132" y="5" width="33" height="235"/>
<rect x="165" y="788" width="33" height="212"/>
<rect x="165" y="651" width="33" height="137"/>
<rect x="165" y="398" width="33" height="253"/>
<rect x="165" y="310" width="33" height="88"/>
<rect x="165" y="176" width="33" height="134"/>
<rect x="198" y="874" width="33" height="126"/>
<rect x="198" y="711" width="33" height="163"/>
<rect x="198" y="481" width="33" height="230"/>
<rect x="231" y="463" width="33" height="537"/>
<rect x="231" y="75" width="33" height="388"/>
<rect x="264" y="541" width="33" height="459"/>
<rect x="264" y="190" width="33" height="351"/>
<rect x="264" y="47" width="33" height="143"/>
<rect x="297" y="496" width="33" height="504"/>
<rect x="297" y="212" width="33" height="284"/>
<rect x="297" y="147" width="33" height="65"/>
<rect x="297" y="91" width="33" height="56"/>
<rect x="330" y="605" width="33" height="395"/>
<rect x="330" y="341" width="33" height="264"/>
<rect x="363" y="872" width="33" height="128"/>
<rect x="363" y="335" width="33" height="537"/>
<rect x="363" y="27" width="33" height="308"/>
<rect x="396" y="485" width="33" height="515"/>
<rect x="429" y="898" width="33" height="102"/>
<rect x="429" y="412" width="33" height="486"/>
<rect x="429" y="389" width="33" height="23"/>
<rect x="429" y="202" width="33" height="187"/>
<rect x="462" y="784" width="33" height="216"/>
<rect x="462" y="498" width="33" height="286"/>
<rect x="462" y="380" width="33" height="118"/>
<rect x="462" y="323" width="33" height="57"/>
<rect x="462" y="211" width="33" height="112"/>
<rect x="462" y="115" width="33" height="96"/>
<rect x="495" y="852" width="33" height="148"/>
<rect x="495" y="333" width="33" height="519"/>
<rect x="495" y="224" width="33" height="109"/>
<rect x="528" y="444" width="33" height="556"/>
<rect x="528" y="95" width="33" height="349"/>
<rect x="561" y="853" width="33" height="147"/>
<rect x="561" y="771" width="33" height="82"/>
<rect x="561" y="502" width="33" height="269"/>
<rect x="561" y="419" width="33" height="83"/>
<rect x="594" y="905" width="33" height="95"/>
<rect x="594" y="659" width="33" height="246"/>
<rect x="627" y="932" width="33" height="68"/>
<rect x="627" y="894" width="33" height="38"/>
<rect x="627" y="864" width="33" height="30"/>
<rect x="627" y="795" width="33" height="69"/>
<rect x="627" y="243" width="33" height="552"/>
<rect x="660" y="977" width="33" height="23"/>
<rect x="660" y="869" width="33" height="108"/>
<rect x="660" y="700" width="33" height="169"/>
<rect x="660" y="471" width="33" height="229"/>
<rect x="660" y="400" width="33" height="71"/>
<rect x="693" y="556" width="33" height="444"/>
<rect x="693" y="47" width="33" height="509"/>
<rect x="726" y="832" width="33" height="168"/>
<rect x="726" y="702" width="33" height="130"/>
<rect x="726" y="150" width="33" height="552"/>
<rect x="759" y="978" width="33" height="22"/>
<rect x="759" y="819" width="33" height="159"/>
<rect x="759" y="762" width="33" height="57"/>
<rect x="759" y="459" width="33" height="303"/>
<rect x="759" y="341" width="33" height="118"/>
<rect x="759" y="160" width="33" height="181"/>
<rect x="792" y="809" width="33" height="191"/>
<rect x="825" y="947" width="33" height="53"/>
<rect x="858" y="861" width="33" height="139"/>
<rect x="858" y="824" width="33" height="37"/>
<rect x="858" y="632" width="33" height="192"/>
<rect x="891" y="965" width="33" height="35"/>
<rect x="891" y="816" width="33" height="149"/>
<rect x="891" y="779" width="33" height="37"/>
<rect x="957" y="817" width="33" height="183"/>
<rect x="957" y="748" width="33" height="69"/>
</g>
</svg>
