<?xml version="1.0" encoding="UTF-8"?>
<svg xmlns="http://www.w3.org/2000/svg" xmlns:xlink="http://www.w3.org/1999/xlink" width="700" height="700" data-extent="0 0 30 1000" data-x-axis-label="Bins" data-y-axis-label="Capacity" fill="none" stroke="black" stroke-width="1" font-size="x-small" font-family="sans-serif" font-weight="300">
 <g id="b" class="mmsvg-plot" name="Bins" fill="gray" stroke="black" stroke-width="0.05" color="gray">
<rect x="0" y="0" width="1" height="1000"/>
<rect x="1" y="0" width="1" height="1000"/>
<rect x="2" y="0" width="1" height="1000"/>
<rect x="3" y="0" width="1" height="1000"/>
<rect x="4" y="0" width="1" height="1000"/>
<rect x="5" y="0" width="1" height="1000"/>
<rect x="6" y="0" width="1" height="1000"/>
<rect x="7" y="0" width="1" height="1000"/>
<rect x="8" y="0" width="1" height="1000"/>
<rect x="9" y="0" width="1" height="1000"/>
<rect x="10" y="0" width="1" height="1000"/>
<rect x="11" y="0" width="1" height="1000"/>
<rect x="12" y="0" width="1" height="1000"/>
<rect x="13" y="0" width="1" height="1000"/>
<rect x="14" y="0" width="1" height="1000"/>
<rect x="15" y="0" width="1" height="1000"/>
<rect x="16" y="0" width="1" height="1000"/>
<rect x="17" y="0" width="1" height="1000"/>
<rect x="18" y="0" width="1" height="1000"/>
<rect x="19" y="0" width="1" height="1000"/>
<rect x="20" y="0" width="1" height="1000"/>
<rect x="21" y="0" width="1" height="1000"/>
<rect x="22" y="0" width="1" height="1000"/>
<rect x="23" y="0" width="1" height="1000"/>
<rect x="24" y="0" width="1" height="1000"/>
<rect x="25" y="0" width="1" height="1000"/>
<rect x="26" y="0" width="1" height="1000"/>
<rect x="27" y="0" width="1" height="1000"/>
<rect x="28" y="0" width="1" height="1000"/>
<rect x="29" y="0" width="1" height="1000"/>
<rect x="30" y="0" width="1" height="1000"/>
</g>
 <g id="i" class="mmsvg-plot" name="Items" fill="lime" stroke="black" stroke-width="0.05" color="lime">
<rect x="0" y="754" width="1" height="246"/>
<rect x="0" y="621" width="1" height="133"/>
<rect x="0" y="465" width="1" height="156"/>
<rect x="0" y="335" width="1" height="130"/>
<rect x="0" y="142" width="1" height="193"/>
<rect x="0" y="62" width="1" height="80"/>
<rect x="1" y="862" width="1" height="138"/>
<rect x="1" y="352" width="1" height="510"/>
<rect x="1" y="158" width="1" height="194"/>
<rect x="2" y="883" width="1" height="117"/>
<rect x="2" y="681" width="1" height="202"/>
<rect x="2" y="411" width="1" height="270"/>
<rect x="3" y="460" width="1" height="540"/>
<rect x="3" y="306" width="1" height="154"/>
<rect x="3" y="176" width="1" height="130"/>
<rect x="3" y="136" width="1" height="40"/>
<rect x="4" y="957" width="1" height="43"/>
<rect x="4" y="931" width="1" height="26"/>
<rect x="4" y="794" width="1" height="137"/>
<rect x="4" y="650" width="1" height="144"/>
<rect x="4" y="453" width="1" height="197"/>
<rect x="4" y="218" width="1" height="235"/>
<rect x="5" y="502" width="1" height="498"/>
<rect x="5" y="249" width="1" height="253"/>
<rect x="5" y="216" width="1" height="33"/>
<rect x="5" y="53" width="1" height="163"/>
<rect x="6" y="927" width="1" height="73"/>
<rect x="6" y="795" width="1" height="132"/>
<rect x="6" y="707" width="1" height="88"/>
<rect x="6" y="581" width="1" height="126"/>
<rect x="6" y="447" width="1" height="134"/>
<rect x="6" y="304" width="1" height="143"/>
<rect x="6" y="176" width="1" height="128"/>
<rect x="7" y="496" width="1" height="504"/>
<rect x="7" y="188" width="1" height="308"/>
<rect x="8" y="541" width="1" height="459"/>
<rect x="8" y="311" width="1" height="230"/>
<rect x="9" y="605" width="1" height="395"/>
<rect x="9" y="90" width="1" height="515"/>
<rect x="10" y="649" width="1" height="351"/>
<rect x="10" y="547" width="1" height="102"/>
<rect x="10" y="482" width="1" height="65"/>
<rect x="10" y="426" width="1" height="56"/>
<rect x="10" y="38" width="1" height="388"/>
<rect x="11" y="788" width="1" height="212"/>
<rect x="11" y="504" width="1" height="284"/>
<rect x="11" y="288" width="1" height="216"/>
<rect x="11" y="170" width="1" height="118"/>
<rect x="11" y="58" width="1" height="112"/>
<rect x="12" y="514" width="1" height="486"/>
<rect x="13" y="463" width="1" height="537"/>
<rect x="13" y="367" width="1" height="96"/>
<rect x="14" y="736" width="1" height="264"/>
<rect x="14" y="180" width="1" height="556"/>
<rect x="15" y="977" width="1" height="23"/>
<rect x="15" y="458" width="1" height="519"/>
<rect x="15" y="271" width="1" height="187"/>
<rect x="15" y="124" width="1" height="147"/>
<rect x="15" y="15" width="1" height="109"/>
<rect x="16" y="463" width="1" height="537"/>
<rect x="16" y="114" width="1" height="349"/>
<rect x="16" y="31" width="1" height="83"/>
<rect x="17" y="852" width="1" height="148"/>
<rect x="17" y="566" width="1" height="286"/>
<rect x="17" y="498" width="1" height="68"/>
<rect x="17" y="441" width="1" height="57"/>
<rect x="17" y="346" width="1" height="95"/>
<rect x="17" y="308" width="1" height="38"/>
<rect x="17" y="278" width="1" height="30"/>
<rect x="17" y="209" width="1" height="69"/>
<rect x="18" y="918" width="1" height="82"/>
<rect x="18" y="474" width="1" height="444"/>
<rect x="18" y="245" width="1" height="229"/>
<rect x="19" y="754" width="1" height="246"/>
<rect x="19" y="451" width="1" height="303"/>
<rect x="20" y="731" width="1" height="269"/>
<rect x="20" y="222" width="1" height="509"/>
<rect x="20" y="104" width="1" height="118"/>
<rect x="21" y="977" width="1" height="23"/>
<rect x="21" y="809" width="1" height="168"/>
<rect x="21" y="679" width="1" height="130"/>
<rect x="21" y="571" width="1" height="108"/>
<rect x="21" y="402" width="1" height="169"/>
<rect x="22" y="448" width="1" height="552"/>
<rect x="23" y="448" width="1" height="552"/>
<rect x="23" y="289" width="1" height="159"/>
<rect x="23" y="232" width="1" height="57"/>
<rect x="23" y="195" width="1" height="37"/>
<rect x="24" y="978" width="1" height="22"/>
<rect x="24" y="907" width="1" height="71"/>
<rect x="25" y="947" width="1" height="53"/>
<rect x="25" y="756" width="1" height="191"/>
<rect x="25" y="575" width="1" height="181"/>
<rect x="26" y="861" width="1" height="139"/>
<rect x="27" y="965" width="1" height="35"/>
<rect x="27" y="816" width="1" height="149"/>
<rect x="28" y="963" width="1" height="37"/>
<rect x="28" y="771" width="1" height="192"/>
<rect x="29" y="817" width="1" height="183"/>
<rect x="29" y="748" width="1" height="69"/>
</g>
</svg>
